<svg xmlns="http://www.w3.org/2000/svg" width="23" height="23" fill="none"><path fill="#333" d="M11.5 23A11.49 11.49 0 0 1 0 11.5 11.49 11.49 0 0 1 11.5 0 11.49 11.49 0 0 1 23 11.5 11.49 11.49 0 0 1 11.5 23Zm0-21.647A10.133 10.133 0 0 0 1.353 11.5 10.134 10.134 0 0 0 11.5 21.647 10.134 10.134 0 0 0 21.647 11.5 10.134 10.134 0 0 0 11.5 1.353Z"/><path fill="#333" d="M11.702 18.061 5.141 11.5l6.561-6.562.947.947L7.035 11.5l5.614 5.614-.947.947Z"/><path fill="#333" d="M6.088 10.823h11.5v1.353h-11.5v-1.353Z"/></svg>