<svg xmlns="http://www.w3.org/2000/svg" width="23" height="23" fill="none"><path fill="#333" d="M11.5 0A11.49 11.49 0 0 1 23 11.5 11.49 11.49 0 0 1 11.5 23 11.49 11.49 0 0 1 0 11.5 11.49 11.49 0 0 1 11.5 0Zm0 21.647A10.134 10.134 0 0 0 21.647 11.5 10.134 10.134 0 0 0 11.5 1.353 10.133 10.133 0 0 0 1.353 11.5 10.134 10.134 0 0 0 11.5 21.647Z"/><path fill="#333" d="m11.298 4.938 6.561 6.562-6.561 6.562-.947-.947 5.614-5.615-5.614-5.614.947-.948Z"/><path fill="#333" d="M16.912 12.177h-11.5v-1.353h11.5v1.353Z"/></svg>