<svg xmlns="http://www.w3.org/2000/svg" width="16" height="16" fill="none"><g fill="#0C401F" clip-path="url(#a)"><path d="M2.68 3.487a1.252 1.252 0 1 0 0-2.505 1.252 1.252 0 0 0 0 2.505ZM6.934 7.304c0-.025-.004-.05-.007-.074l1.87-1.358a.264.264 0 0 0-.31-.427l-1.874 1.36a.547.547 0 0 0-.228-.05H5.366L5.12 5.347c-.136-.71-.42-1.267-1.028-1.267H1.52c-.607 0-1.267.66-1.267 1.267v4.21c0 .303.246.549.55.549h.383l.208 3.59c0 .323.262.584.585.584h1.17a.585.585 0 0 0 .584-.584l.275-7.11h.013l.157.693a.68.68 0 0 0 .672.575h1.536a.55.55 0 0 0 .55-.55Zm-4.654-.78v-2h.719v2l-.382.45-.337-.45Z"/><path d="M5.926 1.415v4.572h.719V2.134h8.15v6.872h-8.15V8.14h-.72v1.584h9.59v-8.31h-9.59ZM9.548 11.584a1.014 1.014 0 1 0-2.029 0 1.014 1.014 0 0 0 2.029 0ZM8.532 13.142c-.723 0-1.337.474-1.573 1.138h3.147c-.236-.664-.85-1.138-1.574-1.138ZM13.922 11.584a1.014 1.014 0 1 0-2.028 0 1.014 1.014 0 0 0 2.028 0ZM12.907 13.142c-.723 0-1.337.474-1.573 1.138h3.147c-.236-.664-.85-1.138-1.574-1.138Z"/></g><defs><clipPath id="a"><path fill="#fff" d="M.252 0h15.262v15.262H.252z"/></clipPath></defs></svg>