<svg xmlns="http://www.w3.org/2000/svg" width="74" height="74" fill="none"><path fill="#fff" d="M11.772 16.904A6.072 6.072 0 1 0 11.77 4.76a6.072 6.072 0 0 0 0 12.144ZM32.399 35.414c0-.123-.02-.242-.036-.36l9.069-6.583c.57-.414.698-1.215.283-1.787a1.286 1.286 0 0 0-1.036-.527c-.271 0-.53.085-.75.244l-9.087 6.596a2.651 2.651 0 0 0-1.106-.247h-4.94l-1.198-6.825c-.659-3.441-2.04-6.144-4.982-6.144H6.143C3.2 19.781 0 22.982 0 25.925v20.409a2.663 2.663 0 0 0 2.663 2.663h1.86l1.012 17.406a2.835 2.835 0 0 0 2.835 2.834h5.67a2.834 2.834 0 0 0 2.834-2.834l1.33-34.476h.067l.762 3.364a3.296 3.296 0 0 0 3.255 2.786h7.448a2.662 2.662 0 0 0 2.663-2.663ZM9.832 31.631V21.93h3.487v9.701l-1.853 2.185-1.634-2.185Z"/><path fill="#fff" d="M27.508 6.857v22.171h3.487V10.344h39.518v33.32H30.995V39.47h-3.487v7.68H74V6.858H27.508ZM45.068 56.162a4.918 4.918 0 0 0-4.918-4.918 4.918 4.918 0 1 0 0 9.837 4.919 4.919 0 0 0 4.918-4.919ZM40.148 63.715c-3.506 0-6.484 2.3-7.629 5.52h15.258c-1.144-3.22-4.123-5.52-7.629-5.52ZM66.279 56.162a4.918 4.918 0 0 0-4.918-4.918 4.918 4.918 0 1 0 0 9.837 4.919 4.919 0 0 0 4.918-4.919ZM61.36 63.715c-3.507 0-6.485 2.3-7.63 5.52h15.258c-1.144-3.22-4.123-5.52-7.629-5.52Z"/></svg>