<svg xmlns="http://www.w3.org/2000/svg" width="40" height="40" fill="none"><g clip-path="url(#a)"><path fill="#fff" d="M11.6 0h16.8C34.8 0 40 5.2 40 11.6v16.8A11.6 11.6 0 0 1 28.4 40H11.6C5.2 40 0 34.8 0 28.4V11.6A11.6 11.6 0 0 1 11.6 0Zm-.4 4A7.2 7.2 0 0 0 4 11.2v17.6c0 3.98 3.22 7.2 7.2 7.2h17.6a7.2 7.2 0 0 0 7.2-7.2V11.2C36 7.22 32.78 4 28.8 4H11.2Zm19.3 3a2.5 2.5 0 1 1 0 5 2.5 2.5 0 0 1 0-5ZM20 10a10 10 0 1 1 0 20 10 10 0 0 1 0-20Zm0 4a6 6 0 1 0 0 12 6 6 0 0 0 0-12Z"/></g><defs><clipPath id="a"><path fill="#fff" d="M0 0h40v40H0z"/></clipPath></defs></svg>