<svg xmlns="http://www.w3.org/2000/svg" width="26" height="26" fill="none"><path fill="#fff" d="m21.57 21.737-.158-.94c-.136-.81-.684-1.515-1.467-1.884L16.61 17.34c-.409-.193-.526-.802-.538-.835-.036-.055-.097-.088-.19-.088h-.01a.2.2 0 0 0-.166.142l-.385 1.387-2.403 4.479-2.397-4.465-.391-1.4c-.021-.076-.087-.132-.196-.145-.07 0-.133.034-.181.117-.001.006-.117.615-.527.808l-3.334 1.573c-.783.37-1.331 1.073-1.467 1.883l-.159.941c-.062.369.027.884.368 1.145.04.03.09.076.154.135.614.559 2.48 2.26 8.13 2.26 5.648 0 7.516-1.701 8.13-2.26.063-.058.114-.104.154-.135.341-.261.43-.777.367-1.145ZM14.508 7.985c.808 1.557 1.914 3.69 2.397 4l.091.058.336-2.693c.092-1.183-.278-2.303-1.042-3.153-.836-.93-2.064-1.463-3.37-1.463-1.307 0-2.535.533-3.37 1.463-.765.85-1.135 1.97-1.043 3.156l.306 2.666.102-.115c.21-.236.59-.482 1.071-.794 1.112-.72 2.784-1.804 4.096-3.94.122.228.267.507.426.815Z"/><path fill="#fff" d="M6.218 13.233a.52.52 0 0 0 .626.394l.874-.216a.521.521 0 0 0 .362-.33l.036.003-.016-.068a.541.541 0 0 0 .001-.247l-.455-1.937a11.103 11.103 0 0 1-.165-1.717c0-3.08 2.44-5.586 5.438-5.586 2.999 0 5.438 2.506 5.438 5.586 0 .464-.055 1.041-.172 1.738l-.448 1.916a.493.493 0 0 0-.012.087l-.018.041c-.006.014-.609 1.352-2.48 1.73a.556.556 0 0 0-.493-.3h-1.128a.568.568 0 0 0-.56.574v.453c0 .317.252.575.56.575h1.128a.561.561 0 0 0 .524-.379c1.12-.197 1.87-.681 2.303-1.056.449-.387.717-.784.849-1.011l.585.144a.513.513 0 0 0 .625-.394l.448-1.915a.535.535 0 0 0-.383-.643l-.324-.08c.077-.56.116-1.058.116-1.48 0-3.714-2.942-6.735-6.558-6.735-3.616 0-6.558 3.021-6.558 6.735 0 .422.04.92.116 1.48l-.323.08a.534.534 0 0 0-.384.643l.448 1.915Z"/></svg>