<svg xmlns="http://www.w3.org/2000/svg" width="24" height="25" fill="none"><path fill="#fff" d="m20.09 20.735-.15-.898c-.13-.772-.654-1.444-1.4-1.796l-3.18-1.5c-.39-.184-.502-.766-.513-.797-.035-.052-.093-.084-.183-.084h-.008a.19.19 0 0 0-.159.136l-.367 1.322-2.292 4.273-2.287-4.259-.373-1.336c-.02-.072-.082-.126-.187-.138-.066 0-.127.032-.172.112-.002.005-.112.586-.503.77l-3.18 1.5c-.747.353-1.27 1.025-1.4 1.797l-.151.898c-.06.352.025.843.35 1.092.039.03.087.073.148.128.585.534 2.366 2.157 7.755 2.157 5.387 0 7.169-1.623 7.754-2.157.061-.055.11-.099.148-.128.325-.25.41-.74.35-1.092ZM13.353 7.617c.77 1.485 1.826 3.52 2.286 3.815l.088.056.32-2.57c.088-1.128-.266-2.196-.995-3.007-.796-.886-1.968-1.395-3.214-1.395s-2.418.509-3.215 1.395c-.73.811-1.083 1.88-.995 3.01l.292 2.543.097-.109c.201-.225.564-.46 1.022-.757 1.061-.687 2.656-1.72 3.908-3.76.116.22.254.485.406.779Z"/><path fill="#fff" d="M5.445 12.623a.496.496 0 0 0 .596.376l.834-.206a.497.497 0 0 0 .346-.315l.034.002-.015-.064c.018-.08.019-.16.001-.236l-.434-1.848a10.59 10.59 0 0 1-.158-1.638c0-2.937 2.328-5.327 5.188-5.327s5.187 2.39 5.187 5.327c0 .443-.053.994-.164 1.659l-.427 1.827a.485.485 0 0 0-.012.084l-.017.039c-.006.012-.58 1.29-2.367 1.65a.53.53 0 0 0-.469-.288h-1.076a.542.542 0 0 0-.534.549v.432c0 .302.24.549.534.549h1.076a.535.535 0 0 0 .5-.362c1.069-.188 1.784-.65 2.197-1.007.428-.37.684-.748.81-.965l.557.137a.487.487 0 0 0 .597-.375l.427-1.827a.51.51 0 0 0-.366-.614l-.308-.075c.073-.535.11-1.01.11-1.413 0-3.542-2.806-6.424-6.255-6.424-3.45 0-6.255 2.882-6.255 6.424 0 .403.037.878.11 1.412l-.309.077a.51.51 0 0 0-.365.613l.427 1.827Z"/></svg>