<svg xmlns="http://www.w3.org/2000/svg" width="26" height="26" fill="none"><path fill="#0C401F" d="m21.062 21.737-.159-.94c-.136-.81-.684-1.515-1.467-1.884l-3.334-1.573c-.409-.193-.526-.802-.537-.835-.037-.055-.098-.088-.191-.088h-.009a.199.199 0 0 0-.167.142l-.385 1.387-2.403 4.479-2.397-4.465-.391-1.4c-.02-.076-.086-.132-.196-.145-.07 0-.133.034-.18.117-.002.006-.118.615-.528.808l-3.334 1.573c-.782.37-1.33 1.073-1.467 1.883l-.158.941c-.063.369.026.884.367 1.145.04.03.09.076.155.135.613.559 2.48 2.26 8.13 2.26 5.647 0 7.515-1.701 8.129-2.26.064-.058.114-.104.154-.135.342-.261.43-.777.368-1.145ZM14 7.985c.807 1.557 1.913 3.69 2.396 4l.092.058.336-2.693c.092-1.183-.279-2.303-1.043-3.153-.835-.93-2.064-1.463-3.37-1.463s-2.535.533-3.37 1.463c-.765.85-1.135 1.97-1.043 3.156l.306 2.666.102-.115c.21-.236.59-.482 1.071-.794 1.112-.72 2.784-1.804 4.097-3.94.121.228.266.507.425.815Z"/><path fill="#0C401F" d="M5.71 13.233a.52.52 0 0 0 .625.394l.874-.216a.521.521 0 0 0 .362-.33l.036.003-.016-.068a.541.541 0 0 0 .002-.247l-.456-1.937a11.103 11.103 0 0 1-.165-1.717c0-3.08 2.44-5.586 5.438-5.586 2.999 0 5.439 2.506 5.439 5.586 0 .464-.056 1.041-.173 1.738l-.448 1.916a.502.502 0 0 0-.012.087l-.018.041c-.006.014-.609 1.352-2.48 1.73a.556.556 0 0 0-.493-.3h-1.128a.568.568 0 0 0-.56.574v.453c0 .317.252.575.56.575h1.128a.561.561 0 0 0 .524-.379c1.12-.197 1.87-.681 2.303-1.056.449-.387.717-.784.849-1.011l.585.144a.52.52 0 0 0 .625-.394l.448-1.915a.535.535 0 0 0-.383-.643l-.323-.08c.076-.56.115-1.058.115-1.48 0-3.714-2.942-6.735-6.558-6.735-3.616 0-6.557 3.021-6.557 6.735 0 .422.039.92.115 1.48l-.323.08a.534.534 0 0 0-.384.643l.448 1.915Z"/></svg>