<svg xmlns="http://www.w3.org/2000/svg" width="163" height="60" fill="none"><path fill="#fff" d="m13.28 30.84 4.434 7.69-4.434 7.71H4.435L0 38.53l4.435-7.69h8.845Z"/><path fill="#0C401F" d="m32.144 16.994 5.395 9.371-5.395 9.37h-10.75l-5.396-9.371 5.397-9.37h10.749Z"/><mask id="a" width="23" height="20" x="15" y="40" maskUnits="userSpaceOnUse" style="mask-type:luminance"><path fill="#fff" d="M15.662 40.953H37.35V60H15.662V40.953Z"/></mask><g mask="url(#a)"><path fill="#fff" d="m31.955 41.26 5.375 9.37-5.375 9.372h-10.77l-5.396-9.371 5.395-9.37h10.77Z"/></g><mask id="b" width="30" height="25" x="34" y="0" maskUnits="userSpaceOnUse" style="mask-type:luminance"><path fill="#fff" d="M34.796 0h28.491v24.696H34.796V0Z"/></mask><g mask="url(#b)"><path fill="#fff" d="m56.193-.001 7.09 12.332-7.09 12.355h-14.2L34.905 12.33 41.994 0h14.199Z"/></g><path fill="#fff" d="M58.286 47.568c-.669 0-1.252-.078-1.75-.235a3.659 3.659 0 0 1-1.283-.634 5.858 5.858 0 0 1-.98-.986c-.343-.47-.677-.923-1.004-1.362a34.269 34.269 0 0 1-1.004-1.479 51.646 51.646 0 0 1-1.096-1.949c-.203-.36-.46-.626-.77-.798a2.363 2.363 0 0 0-.63-.235 2.34 2.34 0 0 0-.514-.07c-.094-.016-.164.023-.21.117a.788.788 0 0 0-.07.353v4.367c0 .485.124.86.373 1.127.265.266.708.47 1.33.61.203.031.35.086.444.164.093.063.14.157.14.282 0 .11-.047.188-.14.235-.078.047-.202.07-.374.07-.357 0-.723-.015-1.096-.047-.374-.015-.74-.031-1.097-.047a21.428 21.428 0 0 0-2.054 0c-.358.016-.723.04-1.097.07-.373.032-.747.048-1.12.048a.736.736 0 0 1-.374-.094c-.108-.047-.163-.117-.163-.211 0-.235.195-.392.584-.47.59-.125 1.01-.297 1.26-.517.249-.219.373-.587.373-1.103V34.396c0-.453-.039-.798-.117-1.033a.883.883 0 0 0-.396-.563c-.203-.125-.506-.22-.91-.282-.218-.031-.374-.094-.467-.188-.094-.094-.14-.188-.14-.281 0-.11.046-.188.14-.235a.836.836 0 0 1 .42-.094c.467 0 .84.008 1.12.023.28.016.545.04.794.07.264.016.575.024.933.024.342 0 .646-.015.91-.047.265-.031.56-.062.887-.094.327-.03.747-.047 1.26-.047 1.79 0 3.159.313 4.108.94.949.626 1.423 1.58 1.423 2.864 0 .704-.147 1.307-.443 1.808a3.918 3.918 0 0 1-1.12 1.197 5.697 5.697 0 0 1-1.354.728c-.062.016-.093.055-.093.117a.35.35 0 0 0 .093.165c.467.72.918 1.408 1.354 2.066a28.22 28.22 0 0 0 1.4 1.831c.498.58 1.035 1.135 1.61 1.667.483.454.973.728 1.47.822.514.078 1.043.117 1.588.117.233 0 .35.118.35.353a.916.916 0 0 1-.35.75c-.234.173-.545.298-.934.377a5.913 5.913 0 0 1-1.214.117Zm-8.308-8.429c.638 0 1.167-.14 1.587-.422.436-.298.763-.69.98-1.174a3.69 3.69 0 0 0 .35-1.62c0-.705-.085-1.3-.256-1.785a2.13 2.13 0 0 0-.887-1.15c-.405-.282-.965-.423-1.68-.423-.405 0-.685.149-.84.446-.14.282-.218.861-.234 1.738-.015.36-.023.837-.023 1.432v2.09c0 .344.085.578.256.704.187.11.436.164.747.164ZM62.304 47.145a.582.582 0 0 1-.303-.07.29.29 0 0 1-.117-.235c0-.125.047-.22.14-.282.093-.062.202-.11.327-.14.373-.094.638-.196.793-.306.171-.11.257-.297.257-.563v-5.095c0-.501-.078-.877-.234-1.127-.155-.25-.42-.407-.793-.47a.299.299 0 0 1-.187-.117.495.495 0 0 1-.07-.258c0-.22.086-.337.257-.352.747-.157 1.392-.368 1.937-.634.56-.282.988-.501 1.283-.658.218-.11.358-.164.42-.164.172 0 .257.078.257.235-.015.219-.046.524-.093.915-.047.376-.093.783-.14 1.221a16.3 16.3 0 0 0-.047 1.198v5.282c0 .235.086.415.257.54.171.126.443.243.817.352.124.047.233.102.327.165.093.047.14.133.14.258 0 .188-.133.282-.397.282-.296 0-.584-.008-.864-.024l-.793-.047a12.633 12.633 0 0 0-1.564 0c-.249.016-.505.032-.77.047a6.785 6.785 0 0 1-.84.047Zm2.334-11.833a1.55 1.55 0 0 1-1.144-.47 1.542 1.542 0 0 1-.467-1.127c0-.485.156-.884.467-1.197a1.55 1.55 0 0 1 1.144-.47c.466 0 .855.157 1.167.47.31.313.466.712.466 1.197 0 .439-.155.814-.466 1.127-.312.314-.7.47-1.167.47ZM74.89 47.404c-.42 0-.817-.04-1.19-.118a8.607 8.607 0 0 1-1.004-.235c-.28-.078-.529-.14-.747-.187a1.747 1.747 0 0 0-.49-.094.823.823 0 0 0-.373.094 1.683 1.683 0 0 0-.327.21c-.124.095-.225.142-.303.142a.433.433 0 0 1-.28-.094c-.078-.047-.117-.11-.117-.188 0-.14.039-.407.117-.798.078-.392.109-.838.093-1.339l-.047-10.753c0-.422-.077-.782-.233-1.08-.14-.313-.389-.516-.747-.61a1.217 1.217 0 0 1-.187-.118.35.35 0 0 1-.093-.258c0-.094.023-.164.07-.211a.527.527 0 0 1 .187-.094 9.979 9.979 0 0 0 1.073-.305 54.3 54.3 0 0 0 1.214-.423c.389-.156.684-.266.887-.329a.713.713 0 0 1 .28-.093c.078 0 .132.023.163.07a.29.29 0 0 1 .047.164c0 .094-.016.321-.047.681-.03.345-.046.72-.046 1.127v4.954c0 .235.015.415.046.54.031.11.086.164.163.164a6.064 6.064 0 0 1 1.564-.845c.56-.203 1.081-.305 1.564-.305.809 0 1.532.211 2.17.634a4.492 4.492 0 0 1 1.517 1.714c.39.704.584 1.518.584 2.442 0 1.08-.234 2.042-.7 2.888a5.053 5.053 0 0 1-1.938 1.948c-.824.47-1.781.705-2.87.705Zm.443-.916c.483 0 .887-.18 1.214-.54.342-.376.607-.869.793-1.48.187-.61.28-1.29.28-2.042 0-.61-.093-1.236-.28-1.878-.17-.642-.45-1.182-.84-1.62-.389-.438-.894-.658-1.517-.658-.389 0-.785.063-1.19.188a2.683 2.683 0 0 0-1.004.54v4.86c0 .517.117.979.35 1.386.25.39.569.696.957.915.39.22.802.329 1.237.329ZM86.68 47.404c-.856 0-1.61-.22-2.264-.658-.653-.438-1.166-1.04-1.54-1.808-.373-.782-.56-1.667-.56-2.653 0-.955.218-1.823.653-2.606a5.261 5.261 0 0 1 1.797-1.902 4.515 4.515 0 0 1 2.451-.704c.654 0 1.237.14 1.75.423.514.266.918.641 1.214 1.127.311.47.467 1.001.467 1.596 0 .564-.242.845-.724.845h-4.737c-.218 0-.382.063-.49.188-.094.11-.14.321-.14.634 0 .657.14 1.252.42 1.784.295.533.684.955 1.166 1.268.483.313 1.035.47 1.657.47.452 0 .864-.086 1.237-.258a4.563 4.563 0 0 0 1.097-.752c.063-.047.117-.086.164-.117.046-.047.093-.07.14-.07.155 0 .233.093.233.281 0 .22-.093.485-.28.799-.187.36-.459.704-.817 1.033a3.654 3.654 0 0 1-1.26.774 4.277 4.277 0 0 1-1.634.306Zm-1.493-7.255h1.657c.404 0 .708-.008.91-.024.202-.016.396-.047.583-.094.078-.015.132-.078.164-.188.03-.125.046-.266.046-.422 0-.423-.163-.775-.49-1.057-.311-.297-.7-.446-1.167-.446a1.73 1.73 0 0 0-.957.305c-.31.188-.568.43-.77.728-.202.298-.295.603-.28.916 0 .188.101.282.304.282ZM102.779 47.24c-.42 0-.926-.016-1.517-.048l-1.797-.094a57.601 57.601 0 0 0-1.47-.023h-.957l-.98.047c-.343.031-.708.047-1.097.047a.736.736 0 0 1-.374-.094c-.109-.047-.163-.125-.163-.235 0-.14.047-.243.14-.305a1.38 1.38 0 0 1 .467-.141c.591-.125.996-.297 1.213-.517.218-.219.327-.587.327-1.103V34.162c0-.532-.109-.908-.327-1.127-.202-.22-.606-.392-1.213-.517a1.382 1.382 0 0 1-.467-.14.406.406 0 0 1-.14-.33c0-.109.054-.187.163-.234a.736.736 0 0 1 .374-.094c.373 0 .731.008 1.073.023.343 0 .677.016 1.004.047.342.016.684.024 1.027.024.233 0 .544-.008.933-.024.405-.031.833-.055 1.284-.07.467-.031.902-.055 1.307-.07.404-.032.731-.047.98-.047 1.307 0 2.482.187 3.524.563 1.042.376 1.929.9 2.66 1.573a6.674 6.674 0 0 1 1.704 2.395c.389.923.584 1.925.584 3.005a8.19 8.19 0 0 1-.584 3.076 7.866 7.866 0 0 1-1.68 2.582c-.716.752-1.587 1.347-2.614 1.785-1.011.438-2.139.657-3.384.657Zm-.35-1.08c1.12 0 2.069-.267 2.847-.8.794-.547 1.393-1.306 1.797-2.276.405-.987.607-2.121.607-3.405 0-1.064-.14-2.027-.42-2.888-.265-.876-.646-1.612-1.144-2.207a4.916 4.916 0 0 0-1.75-1.409 4.906 4.906 0 0 0-2.194-.492c-.56 0-1.034.015-1.423.046-.374.032-.662.126-.864.282-.187.141-.28.384-.28.728v10.33c0 .548.117.979.35 1.292.249.297.584.509 1.004.634.435.11.925.164 1.47.164ZM117.359 47.404c-.856 0-1.611-.22-2.264-.658-.654-.438-1.167-1.04-1.541-1.808-.373-.782-.56-1.667-.56-2.653 0-.955.218-1.823.654-2.606a5.258 5.258 0 0 1 1.797-1.902 4.513 4.513 0 0 1 2.45-.704c.654 0 1.237.14 1.751.423.513.266.918.641 1.213 1.127.311.47.467 1.001.467 1.596 0 .564-.241.845-.724.845h-4.737c-.218 0-.381.063-.49.188-.094.11-.14.321-.14.634 0 .657.14 1.252.42 1.784.295.533.684.955 1.167 1.268.482.313 1.034.47 1.657.47.451 0 .863-.086 1.237-.258a4.578 4.578 0 0 0 1.097-.752c.062-.047.116-.086.163-.117.047-.047.093-.07.14-.07.155 0 .233.093.233.281 0 .22-.093.485-.28.799-.186.36-.459.704-.817 1.033a3.65 3.65 0 0 1-1.26.774 4.275 4.275 0 0 1-1.633.306Zm-1.494-7.255h1.657c.404 0 .708-.008.91-.024a3.52 3.52 0 0 0 .584-.094c.077-.015.132-.078.163-.188.031-.125.047-.266.047-.422 0-.423-.164-.775-.491-1.057-.311-.297-.7-.446-1.166-.446-.327 0-.646.102-.957.305-.311.188-.568.43-.77.728-.203.298-.296.603-.28.916 0 .188.101.282.303.282ZM126.325 47.404c-.498 0-.98-.07-1.447-.212a3.93 3.93 0 0 1-1.237-.587c-.109-.219-.194-.563-.257-1.033-.046-.47-.07-.931-.07-1.385 0-.188.133-.282.397-.282.109 0 .202.032.28.094a.526.526 0 0 1 .164.212c.264.688.599 1.244 1.003 1.666.405.407.864.61 1.377.61.436 0 .778-.132 1.027-.398.249-.282.373-.603.373-.963 0-.422-.155-.775-.466-1.056-.296-.282-.708-.572-1.237-.87a10.448 10.448 0 0 1-1.307-.844 3.596 3.596 0 0 1-.887-1.01c-.218-.391-.327-.845-.327-1.362 0-.579.148-1.087.444-1.526.295-.438.707-.782 1.236-1.033.545-.25 1.167-.375 1.867-.375.498 0 .942.054 1.331.164.404.11.684.219.84.329.124.156.226.446.303.868.078.407.117.838.117 1.292 0 .14-.117.21-.35.21a.652.652 0 0 1-.327-.093.507.507 0 0 1-.21-.188c-.202-.579-.459-1.017-.77-1.315a1.51 1.51 0 0 0-1.074-.446c-.357 0-.684.118-.98.352-.28.22-.42.533-.42.94 0 .328.132.626.397.892.28.266.677.54 1.19.822.98.532 1.688 1.04 2.124 1.526.436.47.653 1.103.653 1.901 0 .955-.326 1.714-.98 2.278-.653.548-1.579.822-2.777.822ZM132.385 47.145a.583.583 0 0 1-.304-.07.291.291 0 0 1-.116-.235c0-.125.046-.22.14-.282.093-.062.202-.11.326-.14.374-.094.638-.196.794-.306.171-.11.257-.297.257-.563v-5.095c0-.501-.078-.877-.234-1.127-.155-.25-.42-.407-.793-.47a.3.3 0 0 1-.187-.117.492.492 0 0 1-.07-.258c0-.22.086-.337.257-.352.747-.157 1.392-.368 1.937-.634.56-.282.988-.501 1.283-.658.218-.11.358-.164.42-.164.172 0 .257.078.257.235-.015.219-.046.524-.093.915-.047.376-.093.783-.14 1.221-.031.423-.047.822-.047 1.198v5.282c0 .235.086.415.257.54.171.126.443.243.817.352.124.047.233.102.326.165.094.047.14.133.14.258 0 .188-.132.282-.396.282-.296 0-.584-.008-.864-.024l-.793-.047a12.655 12.655 0 0 0-1.564 0c-.249.016-.506.032-.77.047a6.783 6.783 0 0 1-.84.047Zm2.334-11.833a1.55 1.55 0 0 1-1.144-.47 1.542 1.542 0 0 1-.467-1.127c0-.485.156-.884.467-1.197a1.55 1.55 0 0 1 1.144-.47c.466 0 .855.157 1.166.47.312.313.467.712.467 1.197 0 .439-.155.814-.467 1.127-.311.314-.7.47-1.166.47ZM143.547 53.86c-1.462 0-2.606-.242-3.43-.728-.825-.485-1.237-1.15-1.237-1.995 0-.439.054-.806.163-1.104.124-.282.366-.548.723-.798.265-.204.553-.43.864-.681.311-.235.599-.454.863-.657l1.097.281c-.575.345-1.003.697-1.283 1.057a2.14 2.14 0 0 0-.42 1.315c0 .626.264 1.15.793 1.573.545.422 1.229.634 2.054.634 1.011 0 1.758-.212 2.24-.634.327-.282.584-.618.77-1.01a2.75 2.75 0 0 0 .281-1.197.95.95 0 0 0-.304-.728c-.187-.172-.513-.32-.98-.446-.467-.11-1.105-.196-1.914-.258-1.571-.141-2.684-.415-3.337-.822-.638-.392-.957-.94-.957-1.644 0-.14.039-.281.117-.422.093-.157.256-.313.49-.47.28-.219.513-.399.7-.54.202-.14.366-.274.49-.399.125-.125.218-.25.28-.376l1.027.423c-.327.11-.599.266-.817.47-.202.187-.303.36-.303.516 0 .172.109.329.327.47.217.125.56.227 1.026.305.467.078 1.097.149 1.891.211 1.602.11 2.769.36 3.5.752.747.375 1.121.93 1.121 1.666 0 .642-.172 1.268-.514 1.879a6.336 6.336 0 0 1-1.353 1.69 6.664 6.664 0 0 1-1.867 1.221 5.227 5.227 0 0 1-2.101.446Zm.304-10.072c.513 0 .933-.282 1.26-.845.327-.58.49-1.323.49-2.23a3.79 3.79 0 0 0-.257-1.433c-.155-.423-.373-.751-.653-.986a1.395 1.395 0 0 0-.957-.376c-.327 0-.63.125-.91.376-.265.25-.475.587-.63 1.01a3.848 3.848 0 0 0-.234 1.385c0 .579.078 1.103.234 1.573.171.47.404.845.7 1.127.295.266.614.399.957.399Zm-.21.963a4.279 4.279 0 0 1-1.984-.494 4.612 4.612 0 0 1-1.54-1.361 3.32 3.32 0 0 1-.607-1.949c0-.767.21-1.44.63-2.02a4.226 4.226 0 0 1 1.657-1.384 4.813 4.813 0 0 1 2.194-.517c.466 0 .902.063 1.307.188.404.11.832.203 1.283.282.327.078.622.133.887.164.264.031.552.047.863.047.218 0 .452-.008.701-.024.264-.03.459-.047.583-.047.233 0 .35.157.35.47 0 .235-.093.47-.28.704-.078.094-.163.141-.257.141h-.63c-.404 0-.661.063-.77.188a.536.536 0 0 0-.07.164 2.575 2.575 0 0 0-.047.306v.634c0 .813-.202 1.565-.606 2.253a4.783 4.783 0 0 1-1.564 1.644 3.827 3.827 0 0 1-2.1.61ZM151.495 47.145a.718.718 0 0 1-.327-.07c-.093-.063-.14-.141-.14-.235 0-.125.047-.22.14-.282.109-.062.241-.117.397-.164.233-.063.443-.149.63-.258.202-.11.303-.321.303-.634v-5.26c0-.36-.054-.665-.163-.915-.094-.266-.304-.438-.63-.517a.618.618 0 0 1-.164-.117.474.474 0 0 1-.07-.282c0-.203.07-.32.21-.352.545-.125 1.082-.29 1.611-.493.544-.22 1.019-.446 1.423-.68.062-.032.125-.071.187-.118a.308.308 0 0 1 .187-.07c.077 0 .124.03.14.093a.291.291 0 0 1 .046.165c0 .11-.023.313-.07.61a7.593 7.593 0 0 0-.046.775v.211a.292.292 0 0 0 .046.117 6.91 6.91 0 0 1 1.634-1.173c.576-.282 1.221-.423 1.937-.423.793 0 1.455.305 1.984.916.544.61.817 1.416.817 2.418v5.118c0 .313.093.517.28.61.186.095.396.18.63.259.124.047.241.11.35.188a.305.305 0 0 1 .163.282c0 .094-.054.164-.163.21a.622.622 0 0 1-.28.071c-.311 0-.584-.015-.817-.047l-.7-.047a10.517 10.517 0 0 0-.747-.023c-.265 0-.513.008-.747.023-.233.016-.474.032-.723.047a6.235 6.235 0 0 1-.817.047.581.581 0 0 1-.257-.07c-.093-.047-.14-.117-.14-.211 0-.126.047-.22.14-.282.094-.078.202-.141.327-.188a3.75 3.75 0 0 0 .607-.258c.186-.094.28-.298.28-.61v-4.767c0-.626-.156-1.119-.467-1.479-.296-.36-.7-.54-1.214-.54-.42 0-.785.063-1.096.188a3.665 3.665 0 0 0-.911.54.422.422 0 0 0-.14.211.696.696 0 0 0-.046.258v5.588c0 .313.085.525.256.634.187.094.397.172.63.235.327.11.491.258.491.446a.29.29 0 0 1-.117.235.583.583 0 0 1-.304.07c-.311 0-.583-.015-.816-.047-.234-.015-.459-.031-.677-.047a10.517 10.517 0 0 0-.747-.023c-.264 0-.513.008-.747.023-.233.016-.474.032-.723.047a6.783 6.783 0 0 1-.84.047Z"/></svg>